# xmcd
#
# Track frame offsets: 
#        150
#        14073
#        26204
#        36548
#        47685
#        59106
#        72103
#        82934
#        98126
#        109492
#        120729
#        132337
#        143726
#        153778
#        163250
#        174911
#        187379
#        197244
#        207775
#        218756
#
# Disc length: 3102 seconds
#
# Revision: 0
# Processed by: cddbd v1.5.2PL0 Copyright (c) Steve Scherf et al.
# Submitted via: ExactAudioCopyFreeDBPlugin 1.0
#
DISCID=310c1c14
DTITLE=Etta James - The Essential Recordings
DYEAR=2012
DGENRE=Blues
TTITLE0=The Wallflower (dance with me Henry)
TTITLE1=W-O-M-A-N
TTITLE2=That's All
TTITLE3=Good Rockin' Daddy
TTITLE4=Hold me, squeeze me
TTITLE5=Be mine
TTITLE6=Fools we mortals be
TTITLE7=Crazy Feeling
TTITLE8=Tears of Joy
TTITLE9=Tough Lover
TTITLE10=Shortnin' Bread Rock
TTITLE11=I'm a fool
TTITLE12=By the light of the silvery moon
TTITLE13=Come what may
TTITLE14=Then I'll care
TTITLE15=Market Place
TTITLE16=Good Lookin'
TTITLE17=The Pick Up
TTITLE18=Baby, Baby, Every Night
TTITLE19=Plum Nuts
EXTD=
EXTT0=
EXTT1=
EXTT2=
EXTT3=
EXTT4=
EXTT5=
EXTT6=
EXTT7=
EXTT8=
EXTT9=
EXTT10=
EXTT11=
EXTT12=
EXTT13=
EXTT14=
EXTT15=
EXTT16=
EXTT17=
EXTT18=
EXTT19=
PLAYORDER=
